<?xml version="1.0" encoding="UTF-8" standalone="no"?>
<!-- Created with Inkscape (http://www.inkscape.org/) -->

<svg
   width="200.26459mm"
   height="200.26459mm"
   viewBox="0 0 200.26459 200.26459"
   version="1.1"
   id="svg5"
   inkscape:version="1.1.2 (0a00cf5339, 2022-02-04)"
   sodipodi:docname="Map_visualization.svg"
   xmlns:inkscape="http://www.inkscape.org/namespaces/inkscape"
   xmlns:sodipodi="http://sodipodi.sourceforge.net/DTD/sodipodi-0.dtd"
   xmlns="http://www.w3.org/2000/svg"
   xmlns:svg="http://www.w3.org/2000/svg"
   xmlns:rdf="http://www.w3.org/1999/02/22-rdf-syntax-ns#"
   xmlns:cc="http://creativecommons.org/ns#">
  <sodipodi:namedview
     id="namedview7"
     pagecolor="#ffffff"
     bordercolor="#666666"
     borderopacity="1.0"
     inkscape:pageshadow="2"
     inkscape:pageopacity="0.0"
     inkscape:pagecheckerboard="0"
     inkscape:document-units="mm"
     showgrid="false"
     inkscape:zoom="0.66368547"
     inkscape:cx="-228.27078"
     inkscape:cy="537.15204"
     inkscape:window-width="1920"
     inkscape:window-height="995"
     inkscape:window-x="0"
     inkscape:window-y="0"
     inkscape:window-maximized="1"
     inkscape:current-layer="layer1"
     fit-margin-top="0"
     fit-margin-left="0"
     fit-margin-right="0"
     fit-margin-bottom="0" />
  <defs
     id="defs2">
    <rect
       x="21.930096"
       y="20.38217"
       width="188.97638"
       height="188.97636"
       id="rect8501" />
    <rect
       x="21.930096"
       y="20.38217"
       width="188.97638"
       height="188.97636"
       id="rect8501-2" />
    <rect
       x="21.930096"
       y="20.38217"
       width="188.97638"
       height="188.97636"
       id="rect8501-2-1" />
    <rect
       x="21.930096"
       y="20.38217"
       width="188.97638"
       height="188.97636"
       id="rect8501-2-1-7" />
  </defs>
  <g
     inkscape:label="Layer 1"
     inkscape:groupmode="layer"
     id="layer1"
     transform="translate(-5.6700423,-5.2604879)">
    <path
       id="rect72-3"
       style="fill:#0000ff;fill-rule:evenodd;stroke:#000000;stroke-width:0.264583"
       d="M 55.802338,5.3927808 H 105.80234 V 55.392781 H 55.802338 Z" />
    <path
       id="rect72-3-6"
       style="fill:#0000ff;fill-rule:evenodd;stroke:#000000;stroke-width:0.264583"
       d="M 5.8023376,5.3927822 H 55.802338 V 55.392782 H 5.8023376 Z" />
    <path
       id="rect72-3-7"
       style="fill:#0000ff;fill-rule:evenodd;stroke:#000000;stroke-width:0.264583"
       d="m 155.80234,5.3927794 h 50 V 55.392779 h -50 z" />
    <path
       id="rect72-3-6-5"
       style="fill:#0000ff;fill-rule:evenodd;stroke:#000000;stroke-width:0.264583"
       d="m 105.80234,5.3927808 h 50 V 55.392781 h -50 z" />
    <path
       id="rect72-3-3"
       style="fill:#0000ff;fill-rule:evenodd;stroke:#000000;stroke-width:0.264583"
       d="m 55.802338,55.39278 h 50.000002 v 50 H 55.802338 Z" />
    <path
       id="rect72-3-6-56"
       style="fill:#0000ff;fill-rule:evenodd;stroke:#000000;stroke-width:0.264583"
       d="M 5.8023338,55.392784 H 55.802334 V 105.39278 H 5.8023338 Z" />
    <path
       id="rect72-3-7-2"
       style="fill:#0000ff;fill-rule:evenodd;stroke:#000000;stroke-width:0.264583"
       d="m 155.80234,55.39278 h 50 v 50 h -50 z" />
    <path
       id="rect72-3-6-5-9"
       style="fill:#0000ff;fill-rule:evenodd;stroke:#000000;stroke-width:0.264583"
       d="m 105.80234,55.39278 h 50 v 50 h -50 z" />
    <path
       id="rect72-3-3-1"
       style="fill:#0000ff;fill-rule:evenodd;stroke:#000000;stroke-width:0.264583"
       d="m 55.802338,105.39278 h 50.000002 v 50 H 55.802338 Z" />
    <path
       id="rect72-3-6-56-2"
       style="fill:#0000ff;fill-rule:evenodd;stroke:#000000;stroke-width:0.264583"
       d="M 5.8023338,105.39278 H 55.802334 v 50 H 5.8023338 Z" />
    <path
       id="rect72-3-7-2-7"
       style="fill:#0000ff;fill-rule:evenodd;stroke:#000000;stroke-width:0.264583"
       d="m 155.80234,105.39278 h 50 v 50 h -50 z" />
    <path
       id="rect72-3-6-5-9-0"
       style="fill:#0000ff;fill-rule:evenodd;stroke:#000000;stroke-width:0.264583"
       d="m 105.80234,105.39278 h 50 v 50 h -50 z" />
    <path
       id="rect72-3-3-9"
       style="fill:#0000ff;fill-rule:evenodd;stroke:#000000;stroke-width:0.264583"
       d="m 55.802341,155.39278 h 49.999999 v 50 H 55.802341 Z" />
    <path
       id="rect72-3-6-56-3"
       style="fill:#0000ff;fill-rule:evenodd;stroke:#000000;stroke-width:0.264583"
       d="M 5.8023372,155.39278 H 55.802337 v 50 H 5.8023372 Z" />
    <path
       id="rect72-3-7-2-6"
       style="fill:#0000ff;fill-rule:evenodd;stroke:#000000;stroke-width:0.264583"
       d="m 155.80234,155.39278 h 50 v 50 h -50 z" />
    <path
       id="rect72-3-6-5-9-06"
       style="fill:#0000ff;fill-rule:evenodd;stroke:#000000;stroke-width:0.264583"
       d="m 105.80235,155.39278 h 50 v 50 h -50 z" />
    <g
       aria-label="0, 0"
       transform="scale(0.26458333)"
       id="text8499"
       style="font-size:94.6667px;line-height:1.25;white-space:pre;shape-inside:url(#rect8501)">
      <path
         d="m 52.021496,41.27605 q -7.210941,0 -10.862635,7.118492 -3.60547,7.072268 -3.60547,21.309253 0,14.19076 3.60547,21.309252 3.651694,7.072269 10.862635,7.072269 7.257164,0 10.862634,-7.072269 3.651694,-7.118492 3.651694,-21.309252 0,-14.236985 -3.651694,-21.309253 Q 59.27866,41.27605 52.021496,41.27605 Z m 0,-7.395837 q 11.602218,0 17.703782,9.198572 6.147789,9.152347 6.147789,26.62501 0,17.426438 -6.147789,26.62501 -6.101564,9.152345 -17.703782,9.152345 -11.602218,0 -17.750007,-9.152345 -6.101565,-9.198572 -6.101565,-26.62501 0,-17.472663 6.101565,-26.62501 6.147789,-9.198572 17.750007,-9.198572 z"
         style="fill:#ffffff"
         id="path20605" />
      <path
         d="m 93.253281,92.399767 h 9.753259 v 7.950523 l -7.580732,14.79167 h -5.962893 l 3.790366,-14.79167 z"
         style="fill:#ffffff"
         id="path20607" />
      <path
         d="m 172.43495,41.27605 q -7.21094,0 -10.86264,7.118492 -3.60547,7.072268 -3.60547,21.309253 0,14.19076 3.60547,21.309252 3.6517,7.072269 10.86264,7.072269 7.25716,0 10.86263,-7.072269 3.6517,-7.118492 3.6517,-21.309252 0,-14.236985 -3.6517,-21.309253 -3.60547,-7.118492 -10.86263,-7.118492 z m 0,-7.395837 q 11.60222,0 17.70378,9.198572 6.14779,9.152347 6.14779,26.62501 0,17.426438 -6.14779,26.62501 -6.10156,9.152345 -17.70378,9.152345 -11.60222,0 -17.75001,-9.152345 -6.10156,-9.198572 -6.10156,-26.62501 0,-17.472663 6.10156,-26.62501 6.14779,-9.198572 17.75001,-9.198572 z"
         style="fill:#ffffff"
         id="path20609" />
    </g>
    <g
       aria-label="3, 3"
       transform="matrix(0.26458333,0,0,0.26458333,150.43728,148.76677)"
       id="text8499-6"
       style="font-size:94.6667px;line-height:1.25;white-space:pre;shape-inside:url(#rect8501-2)">
      <path
         d="m 60.341811,66.930356 q 6.702477,1.432943 10.446619,5.962893 3.790366,4.52995 3.790366,11.186202 0,10.215499 -7.026044,15.8086 -7.026045,5.593099 -19.968758,5.593099 -4.345054,0 -8.967451,-0.87825 -4.576174,-0.83204 -9.475915,-2.54232 v -9.013678 q 3.882814,2.264975 8.505211,3.420575 4.622398,1.155599 9.660811,1.155599 8.782556,0 13.358729,-3.466798 4.622398,-3.466798 4.622398,-10.076827 0,-6.101565 -4.29883,-9.522139 -4.252606,-3.466798 -11.879562,-3.466798 h -8.042972 v -7.67318 h 8.412764 q 6.887372,0 10.539066,-2.727215 3.651695,-2.773438 3.651695,-7.950523 0,-5.315758 -3.790366,-8.13542 -3.744142,-2.865887 -10.770187,-2.865887 -3.83659,0 -8.227867,0.832032 -4.391278,0.832031 -9.660811,2.588542 v -8.320315 q 5.315757,-1.479167 9.938154,-2.218751 4.668622,-0.739584 8.782556,-0.739584 10.631514,0 16.825527,4.853518 6.194013,4.807293 6.194013,13.035161 0,5.731773 -3.281903,9.707035 -3.281902,3.929038 -9.337243,5.454429 z"
         style="fill:#ffffff"
         id="path20598" />
      <path
         d="m 93.253281,92.399767 h 9.753259 v 7.950523 l -7.580732,14.79167 h -5.962893 l 3.790366,-14.79167 z"
         style="fill:#ffffff"
         id="path20600" />
      <path
         d="m 180.75526,66.930356 q 6.70248,1.432943 10.44662,5.962893 3.79037,4.52995 3.79037,11.186202 0,10.215499 -7.02605,15.8086 -7.02604,5.593099 -19.96875,5.593099 -4.34506,0 -8.96746,-0.87825 -4.57617,-0.83204 -9.47591,-2.54232 v -9.013678 q 3.88281,2.264975 8.50521,3.420575 4.6224,1.155599 9.66081,1.155599 8.78256,0 13.35873,-3.466798 4.6224,-3.466798 4.6224,-10.076827 0,-6.101565 -4.29883,-9.522139 -4.25261,-3.466798 -11.87956,-3.466798 h -8.04297 v -7.67318 h 8.41276 q 6.88737,0 10.53907,-2.727215 3.65169,-2.773438 3.65169,-7.950523 0,-5.315758 -3.79037,-8.13542 -3.74414,-2.865887 -10.77018,-2.865887 -3.83659,0 -8.22787,0.832032 -4.39128,0.832031 -9.66081,2.588542 v -8.320315 q 5.31576,-1.479167 9.93815,-2.218751 4.66863,-0.739584 8.78256,-0.739584 10.63151,0 16.82553,4.853518 6.19401,4.807293 6.19401,13.035161 0,5.731773 -3.2819,9.707035 -3.28191,3.929038 -9.33725,5.454429 z"
         style="fill:#ffffff"
         id="path20602" />
    </g>
    <g
       aria-label="0, 1"
       transform="matrix(0.26458333,0,0,0.26458333,2.039264,51.308968)"
       id="text8499-6-8"
       style="font-size:94.6667px;line-height:1.25;white-space:pre;shape-inside:url(#rect8501-2-1)">
      <path
         d="m 52.021496,41.27605 q -7.210941,0 -10.862635,7.118492 -3.60547,7.072268 -3.60547,21.309253 0,14.19076 3.60547,21.309252 3.651694,7.072269 10.862635,7.072269 7.257164,0 10.862634,-7.072269 3.651694,-7.118492 3.651694,-21.309252 0,-14.236985 -3.651694,-21.309253 Q 59.27866,41.27605 52.021496,41.27605 Z m 0,-7.395837 q 11.602218,0 17.703782,9.198572 6.147789,9.152347 6.147789,26.62501 0,17.426438 -6.147789,26.62501 -6.101564,9.152345 -17.703782,9.152345 -11.602218,0 -17.750007,-9.152345 -6.101565,-9.198572 -6.101565,-26.62501 0,-17.472663 6.101565,-26.62501 6.147789,-9.198572 17.750007,-9.198572 z"
         style="fill:#ffffff"
         id="path20591" />
      <path
         d="m 93.253281,92.399767 h 9.753259 v 7.950523 l -7.580732,14.79167 h -5.962893 l 3.790366,-14.79167 z"
         style="fill:#ffffff"
         id="path20593" />
      <path
         d="m 154.08403,96.282581 h 15.25391 V 43.633472 l -16.59441,3.328127 v -8.505212 l 16.50196,-3.328126 h 9.33725 v 61.15432 h 15.25391 v 7.858079 h -39.75262 z"
         style="fill:#ffffff"
         id="path20595" />
    </g>
    <g
       aria-label="1, 0"
       transform="matrix(0.26458333,0,0,0.26458333,50.978598,0.38044897)"
       id="text8499-6-8-9"
       style="font-size:94.6667px;line-height:1.25;white-space:pre;shape-inside:url(#rect8501-2-1-7)">
      <path
         d="M 33.670577,96.282581 H 48.924489 V 43.633472 l -16.594407,3.328127 v -8.505212 l 16.501959,-3.328126 h 9.337243 v 61.15432 h 15.253912 v 7.858079 H 33.670577 Z"
         style="fill:#ffffff"
         id="path20584" />
      <path
         d="m 93.253281,92.399767 h 9.753259 v 7.950523 l -7.580732,14.79167 h -5.962893 l 3.790366,-14.79167 z"
         style="fill:#ffffff"
         id="path20586" />
      <path
         d="m 172.43495,41.27605 q -7.21094,0 -10.86264,7.118492 -3.60547,7.072268 -3.60547,21.309253 0,14.19076 3.60547,21.309252 3.6517,7.072269 10.86264,7.072269 7.25716,0 10.86263,-7.072269 3.6517,-7.118492 3.6517,-21.309252 0,-14.236985 -3.6517,-21.309253 -3.60547,-7.118492 -10.86263,-7.118492 z m 0,-7.395837 q 11.60222,0 17.70378,9.198572 6.14779,9.152347 6.14779,26.62501 0,17.426438 -6.14779,26.62501 -6.10156,9.152345 -17.70378,9.152345 -11.60222,0 -17.75001,-9.152345 -6.10156,-9.198572 -6.10156,-26.62501 0,-17.472663 6.10156,-26.62501 6.14779,-9.198572 17.75001,-9.198572 z"
         style="fill:#ffffff"
         id="path20588" />
    </g>
  </g>
  <metadata
     id="metadata20582">
    <rdf:RDF>
      <cc:Work
         rdf:about="">
        <cc:license
           rdf:resource="http://creativecommons.org/publicdomain/zero/1.0/" />
      </cc:Work>
      <cc:License
         rdf:about="http://creativecommons.org/publicdomain/zero/1.0/">
        <cc:permits
           rdf:resource="http://creativecommons.org/ns#Reproduction" />
        <cc:permits
           rdf:resource="http://creativecommons.org/ns#Distribution" />
        <cc:permits
           rdf:resource="http://creativecommons.org/ns#DerivativeWorks" />
      </cc:License>
    </rdf:RDF>
  </metadata>
</svg>
